<svg data-v-423bf9ae="" xmlns="http://www.w3.org/2000/svg" viewBox="0 0 357.0535448117519 60" class="font"><!----><!----><defs data-v-423bf9ae=""><linearGradient data-v-423bf9ae="" gradientTransform="rotate(25)" id="439f0005-51a0-4bd9-9453-849328ba27b9" x1="0%" y1="0%" x2="100%" y2="0%"><stop data-v-423bf9ae="" offset="0%" style="stop-color: rgb(233, 13, 202); stop-opacity: 1;"></stop><stop data-v-423bf9ae="" offset="100%" style="stop-color: rgb(21, 54, 241); stop-opacity: 1;"></stop></linearGradient></defs><g data-v-423bf9ae="" id="20d3efc1-f7c6-43d1-85b0-4f6f5bfc4e25" fill="url(#439f0005-51a0-4bd9-9453-849328ba27b9)" transform="matrix(5.357142925262451,0,0,5.357142925262451,-4.8749918937683105,-8.999999046325684)"><path d="M3.65 8.40L7.32 8.40L7.62 6.72L3.95 6.72L4.33 4.55L8.13 4.55L8.44 2.80L2.63 2.80L0.91 12.60L2.91 12.60ZM12.61 8.09L13.85 6.58C13.58 6.16 13.05 5.95 12.26 5.95C11.71 5.95 11.15 6.29 10.58 6.96L10.72 6.16L8.76 6.16L7.63 12.60L9.59 12.60L10.23 8.96C10.37 8.17 10.87 7.77 11.73 7.77C12.07 7.77 12.36 7.88 12.61 8.09ZM14.80 6.16L13.66 12.60L15.61 12.60L16.74 6.16ZM15.06 3.61C15.06 3.91 15.18 4.17 15.41 4.38C15.64 4.60 15.91 4.70 16.23 4.70C16.54 4.70 16.82 4.60 17.05 4.38C17.27 4.17 17.39 3.91 17.39 3.61C17.39 3.31 17.27 3.06 17.05 2.84C16.82 2.63 16.54 2.52 16.23 2.52C15.91 2.52 15.64 2.63 15.41 2.84C15.18 3.06 15.06 3.31 15.06 3.61ZM19.14 9.87L24.23 9.87C24.36 9.49 24.43 9.05 24.43 8.57C24.43 7.76 24.14 7.09 23.56 6.58C22.98 6.07 22.26 5.81 21.39 5.81C20.19 5.81 19.19 6.22 18.41 7.03C17.63 7.84 17.23 8.85 17.23 10.05C17.23 10.89 17.51 11.57 18.07 12.10C18.63 12.62 19.41 12.88 20.41 12.88C21.30 12.88 22.02 12.70 22.57 12.33C23.12 11.96 23.60 11.46 24.01 10.82L22.30 10.42C21.85 11.08 21.27 11.41 20.54 11.41C20.12 11.41 19.78 11.28 19.52 11.03C19.27 10.77 19.14 10.40 19.14 9.91ZM22.50 8.48L19.43 8.48C19.59 8.10 19.85 7.79 20.20 7.56C20.56 7.33 20.92 7.21 21.28 7.21C22.07 7.21 22.48 7.63 22.50 8.48ZM27.51 8.57C27.61 8.17 27.81 7.86 28.11 7.65C28.41 7.44 28.76 7.34 29.15 7.34C29.50 7.34 29.75 7.44 29.88 7.64C30.01 7.85 30.03 8.19 29.93 8.68L29.25 12.60L31.14 12.60L31.91 8.26C32.04 7.50 31.94 6.92 31.61 6.50C31.29 6.08 30.79 5.87 30.11 5.87C29.14 5.87 28.36 6.28 27.76 7.11L27.93 6.16L26.04 6.16L24.91 12.60L26.80 12.60ZM39.93 1.68L38.92 7.36C38.73 6.90 38.44 6.53 38.05 6.27C37.66 6.01 37.21 5.88 36.71 5.88C35.62 5.88 34.71 6.23 33.98 6.94C33.25 7.65 32.89 8.65 32.89 9.94C32.89 10.88 33.15 11.61 33.67 12.12C34.19 12.63 34.88 12.88 35.74 12.88C36.18 12.88 36.62 12.76 37.05 12.51C37.48 12.26 37.87 11.92 38.19 11.48L38.00 12.60L39.89 12.60L41.82 1.68ZM34.83 9.76C34.83 9.05 35.05 8.50 35.48 8.13C35.91 7.75 36.42 7.56 37.03 7.56C37.50 7.56 37.87 7.67 38.16 7.89C38.45 8.11 38.60 8.45 38.60 8.92C38.60 9.66 38.37 10.22 37.91 10.61C37.45 11.00 36.95 11.20 36.40 11.20C35.93 11.20 35.56 11.07 35.27 10.81C34.98 10.56 34.83 10.21 34.83 9.76ZM43.36 2.80L41.64 12.60L47.45 12.60L47.75 10.85L43.96 10.85L45.37 2.80ZM49.39 6.16L48.26 12.60L50.20 12.60L51.34 6.16ZM49.66 3.61C49.66 3.91 49.77 4.17 50.00 4.38C50.23 4.60 50.50 4.70 50.82 4.70C51.14 4.70 51.41 4.60 51.64 4.38C51.87 4.17 51.98 3.91 51.98 3.61C51.98 3.31 51.87 3.06 51.64 2.84C51.41 2.63 51.14 2.52 50.82 2.52C50.50 2.52 50.23 2.63 50.00 2.84C49.77 3.06 49.66 3.31 49.66 3.61ZM54.47 8.57C54.58 8.17 54.78 7.86 55.08 7.65C55.37 7.44 55.72 7.34 56.11 7.34C56.47 7.34 56.71 7.44 56.84 7.64C56.97 7.85 56.99 8.19 56.90 8.68L56.21 12.60L58.10 12.60L58.87 8.26C59.00 7.50 58.90 6.92 58.58 6.50C58.25 6.08 57.75 5.87 57.08 5.87C56.11 5.87 55.32 6.28 54.73 7.11L54.89 6.16L53.00 6.16L51.87 12.60L53.76 12.60ZM61.71 1.68L59.78 12.60L61.67 12.60L62.29 9.09L64.47 12.60L66.71 12.60L64.37 8.82L67.56 6.16L64.92 6.16L62.44 8.22L63.60 1.68Z"></path></g><!----><!----></svg>